<?xml version="1.0" standalone="no"?><!DOCTYPE svg PUBLIC "-//W3C//DTD SVG 1.1//EN" "http://www.w3.org/Graphics/SVG/1.1/DTD/svg11.dtd"><svg width="100%" height="100%" viewBox="0 0 192 192" version="1.1" xmlns="http://www.w3.org/2000/svg" xmlns:xlink="http://www.w3.org/1999/xlink" xml:space="preserve" style="fill-rule:evenodd;clip-rule:evenodd;stroke-linejoin:round;stroke-miterlimit:1.41421;"><path id="Background" d="M90.565,13.159c1.67,-0.522 9.201,-0.568 10.87,0l70.5,25.852c0.753,0.302 0.95,0.361 1.675,0.727c0.815,0.412 1.595,0.894 2.326,1.44c1.464,1.093 2.734,2.44 3.736,3.965c1.003,1.526 1.735,3.224 2.156,4.999c0.21,0.887 0.342,1.793 0.395,2.703c0.018,0.303 0.018,0.607 0.027,0.911l0,85.623c-0.009,0.303 -0.009,0.606 -0.026,0.908c-0.053,0.907 -0.185,1.81 -0.394,2.694c-0.417,1.77 -1.145,3.464 -2.142,4.986c-0.996,1.522 -2.258,2.868 -3.714,3.961c-0.728,0.547 -1.503,1.03 -2.314,1.443c-0.722,0.368 -0.917,0.428 -1.667,0.731l-70.5,26.167c-1.742,0.655 -9.244,0.628 -10.986,0l-70.5,-26.167c-0.75,-0.303 -0.945,-0.363 -1.667,-0.731c-0.811,-0.413 -1.586,-0.896 -2.314,-1.443c-1.456,-1.093 -2.718,-2.439 -3.714,-3.961c-0.997,-1.522 -1.725,-3.216 -2.142,-4.986c-0.209,-0.884 -0.341,-1.787 -0.394,-2.694c-0.017,-0.302 -0.017,-0.605 -0.026,-0.908l0,-85.623c0.024,-0.81 0.012,-1.014 0.106,-1.819c0.106,-0.906 0.291,-1.802 0.552,-2.675c0.523,-1.748 1.353,-3.401 2.443,-4.866c1.089,-1.465 2.435,-2.736 3.96,-3.743c0.762,-0.502 1.568,-0.939 2.406,-1.303c0.279,-0.121 0.565,-0.226 0.848,-0.339l70.5,-25.852l0,0Z" style="fill:#e5e4e3;fill-rule:nonzero;"/></svg>