<?xml version="1.0" standalone="no"?><!DOCTYPE svg PUBLIC "-//W3C//DTD SVG 1.1//EN" "http://www.w3.org/Graphics/SVG/1.1/DTD/svg11.dtd"><svg width="100%" height="100%" viewBox="0 0 192 192" version="1.1" xmlns="http://www.w3.org/2000/svg" xmlns:xlink="http://www.w3.org/1999/xlink" xml:space="preserve" style="fill-rule:evenodd;clip-rule:evenodd;stroke-linejoin:round;stroke-miterlimit:1.41421;"><g id="Face"><path id="Background" d="M90.565,13.159c1.67,-0.522 9.201,-0.568 10.87,0l70.5,25.852c0.753,0.302 0.95,0.361 1.675,0.727c0.815,0.412 1.595,0.894 2.326,1.44c1.464,1.093 2.734,2.44 3.736,3.965c1.003,1.526 1.735,3.224 2.156,4.999c0.21,0.887 0.342,1.793 0.395,2.703c0.018,0.303 0.018,0.607 0.027,0.911l0,85.623c-0.009,0.303 -0.009,0.606 -0.026,0.908c-0.053,0.907 -0.185,1.81 -0.394,2.694c-0.417,1.77 -1.145,3.464 -2.142,4.986c-0.996,1.522 -2.258,2.868 -3.714,3.961c-0.728,0.547 -1.503,1.03 -2.314,1.443c-0.722,0.368 -0.917,0.428 -1.667,0.731l-70.5,26.167c-1.742,0.655 -9.244,0.628 -10.986,0l-70.5,-26.167c-0.75,-0.303 -0.945,-0.363 -1.667,-0.731c-0.811,-0.413 -1.586,-0.896 -2.314,-1.443c-1.456,-1.093 -2.718,-2.439 -3.714,-3.961c-0.997,-1.522 -1.725,-3.216 -2.142,-4.986c-0.209,-0.884 -0.341,-1.787 -0.394,-2.694c-0.017,-0.302 -0.017,-0.605 -0.026,-0.908l0,-85.623c0.024,-0.81 0.012,-1.014 0.106,-1.819c0.106,-0.906 0.291,-1.802 0.552,-2.675c0.523,-1.748 1.353,-3.401 2.443,-4.866c1.089,-1.465 2.435,-2.736 3.96,-3.743c0.762,-0.502 1.568,-0.939 2.406,-1.303c0.279,-0.121 0.565,-0.226 0.848,-0.339l70.5,-25.852Z" style="fill:#f2c271;fill-rule:nonzero;"/><path id="Left" d="M9.75,139.379l0,-83.914c0,-6.217 3.863,-10.866 9,-9l65.25,24c7.956,3.11 12,9.03 12,16.5l0,85.5c0,5.529 -4.005,8.31 -8.25,6.75l-68.435,-25.391c-0.292,-0.12 -0.537,-0.229 -0.975,-0.453c-0.811,-0.413 -1.586,-0.896 -2.314,-1.443c-1.456,-1.093 -2.718,-2.439 -3.714,-3.961c-0.997,-1.522 -1.725,-3.216 -2.142,-4.986c-0.209,-0.884 -0.341,-1.787 -0.394,-2.694c-0.017,-0.302 -0.017,-0.605 -0.026,-0.908Z" style="fill:url(#_Linear1);"/><path id="Right" d="M172.685,153.824l-68.435,25.391c-4.245,1.56 -8.25,-1.221 -8.25,-6.75l0,-85.5c0,-7.47 4.044,-13.39 12,-16.5l65.25,-24c5.137,-1.866 9,2.783 9,9l0,83.914c-0.009,0.303 -0.009,0.606 -0.026,0.908c-0.053,0.907 -0.185,1.81 -0.394,2.694c-0.417,1.77 -1.145,3.464 -2.142,4.986c-0.996,1.522 -2.258,2.868 -3.714,3.961c-0.728,0.547 -1.503,1.03 -2.314,1.443c-0.438,0.224 -0.683,0.333 -0.975,0.453Z" style="fill:url(#_Linear2);"/><path id="Top" d="M21.14,38.617l69.425,-25.458c1.67,-0.522 9.201,-0.568 10.87,0l66.632,24.434l3.683,1.372c4.081,1.521 5.603,5.738 1.5,7.5l-65.25,24c-7.778,3.604 -17.207,3.023 -24,0l-65.25,-24c-3.76,-1.529 -4.181,-4.596 -0.564,-6.622c0.337,-0.176 0.681,-0.341 1.031,-0.493l0.062,-0.026l1.861,-0.707Z" style="fill:#fc7;"/></g><g id="Beard"><clipPath id="_clip3"><path d="M166.5,0.715l0.365,36.435c1.291,0.49 1.886,2.067 0.699,2.625l-17.792,6.963c4.119,1.407 7.158,5.107 1.664,7.41c-4.459,1.869 -25.228,9.513 -25.228,9.513c-6.119,2.32 -16.851,0.84 -19.708,-0.696l-15.696,6.094c-3.432,1.31 -7.585,1.424 -11.02,0.124l-16.329,-6.047l0.161,43.13c0,0 -4.947,-1.756 -10.987,-4.247c-6.041,-2.491 -10.789,0.539 -10.789,6.379c0,5.84 4.134,12.167 8.392,13.829l34.528,13.363c6.614,2.51 16.201,1.909 22.883,-0.549l74.614,-28.018l9.743,0.192l0,85.5l-192,0l0,-192l166.5,0ZM114.425,164.687c-3.529,1.346 -7.918,-3.118 -8.003,-7.212c-0.092,-4.419 3.322,-11.603 8.418,-13.683l46.432,-17.658c4.417,-1.658 9.498,-0.085 9.646,7.251c0.096,4.735 -3.907,11.613 -8.833,13.573l-12.424,4.658l-0.059,-2.102c-0.06,-1.953 -2.441,-3.483 -4.472,-2.748l-13.011,4.731c-2.241,0.766 -4.243,3.814 -4.269,5.73l0.034,2.454l-13.459,5.006Z"/></clipPath><g clip-path="url(#_clip3)"><path id="Background1" d="M90.565,13.159c1.67,-0.522 9.201,-0.568 10.87,0l70.5,25.852c0.753,0.302 0.95,0.361 1.675,0.727c0.815,0.412 1.595,0.894 2.326,1.44c1.464,1.093 2.734,2.44 3.736,3.965c1.003,1.526 1.735,3.224 2.156,4.999c0.21,0.887 0.342,1.793 0.395,2.703c0.018,0.303 0.018,0.607 0.027,0.911l0,85.623c-0.009,0.303 -0.009,0.606 -0.026,0.908c-0.053,0.907 -0.185,1.81 -0.394,2.694c-0.417,1.77 -1.145,3.464 -2.142,4.986c-0.996,1.522 -2.258,2.868 -3.714,3.961c-0.728,0.547 -1.503,1.03 -2.314,1.443c-0.722,0.368 -0.917,0.428 -1.667,0.731l-70.5,26.167c-1.742,0.655 -9.244,0.628 -10.986,0l-70.5,-26.167c-0.75,-0.303 -0.945,-0.363 -1.667,-0.731c-0.811,-0.413 -1.586,-0.896 -2.314,-1.443c-1.456,-1.093 -2.718,-2.439 -3.714,-3.961c-0.997,-1.522 -1.725,-3.216 -2.142,-4.986c-0.209,-0.884 -0.341,-1.787 -0.394,-2.694c-0.017,-0.302 -0.017,-0.605 -0.026,-0.908l0,-85.623c0.024,-0.81 0.012,-1.014 0.106,-1.819c0.106,-0.906 0.291,-1.802 0.552,-2.675c0.523,-1.748 1.353,-3.401 2.443,-4.866c1.089,-1.465 2.435,-2.736 3.96,-3.743c0.762,-0.502 1.568,-0.939 2.406,-1.303c0.279,-0.121 0.565,-0.226 0.848,-0.339l70.5,-25.852Z" style="fill:url(#_Linear4);fill-rule:nonzero;"/><path id="Left1" d="M9.75,139.379l0,-83.914c0,-6.217 3.863,-10.866 9,-9l65.25,24c7.956,3.11 12,9.03 12,16.5l0,85.5c0,5.529 -4.005,8.31 -8.25,6.75l-68.435,-25.391c-0.292,-0.12 -0.537,-0.229 -0.975,-0.453c-0.811,-0.413 -1.586,-0.896 -2.314,-1.443c-1.456,-1.093 -2.718,-2.439 -3.714,-3.961c-0.997,-1.522 -1.725,-3.216 -2.142,-4.986c-0.209,-0.884 -0.341,-1.787 -0.394,-2.694c-0.017,-0.302 -0.017,-0.605 -0.026,-0.908Z" style="fill:url(#_Linear5);"/><path id="Right1" d="M172.685,153.824l-68.435,25.391c-4.245,1.56 -8.25,-1.221 -8.25,-6.75l0,-85.5c0,-7.47 4.044,-13.39 12,-16.5l65.25,-24c5.137,-1.866 9,2.783 9,9l0,83.914c-0.009,0.303 -0.009,0.606 -0.026,0.908c-0.053,0.907 -0.185,1.81 -0.394,2.694c-0.417,1.77 -1.145,3.464 -2.142,4.986c-0.996,1.522 -2.258,2.868 -3.714,3.961c-0.728,0.547 -1.503,1.03 -2.314,1.443c-0.438,0.224 -0.683,0.333 -0.975,0.453Z" style="fill:url(#_Linear6);"/><path id="Top1" d="M21.14,38.617l69.425,-25.458c1.67,-0.522 9.201,-0.568 10.87,0l66.632,24.434l3.683,1.372c4.081,1.521 5.603,5.738 1.5,7.5l-65.25,24c-7.778,3.604 -17.207,3.023 -24,0l-65.25,-24c-3.76,-1.529 -4.181,-4.596 -0.564,-6.622c0.337,-0.176 0.681,-0.341 1.031,-0.493l0.062,-0.026l1.861,-0.707Z" style="fill:#731;"/></g></g><path id="Eye 1" d="M123,110.965c-0.024,-1.864 0.009,-6.138 0,-9c-0.009,-2.649 1.753,-4.816 5.25,-6c2.046,-0.692 5.197,0.386 5.25,3c0.067,3.301 0.027,5.716 0,8.25c-0.032,3.029 -1.97,5.69 -6,6.75c-2.427,0.638 -4.474,-0.976 -4.5,-3Z" style="fill:#000;"/><path id="Eye 2" d="M144.009,103.13c-0.024,-1.89 0.008,-6.223 0,-9.124c-0.009,-2.686 1.682,-4.883 5.04,-6.083c1.965,-0.702 4.989,0.391 5.041,3.041c0.064,3.347 0.026,5.795 0,8.364c-0.031,3.072 -1.892,5.769 -5.761,6.844c-2.33,0.647 -4.295,-0.99 -4.32,-3.042Z" style="fill:#000;"/><defs><linearGradient id="_Linear1" x1="0" y1="0" x2="1" y2="0" gradientUnits="userSpaceOnUse" gradientTransform="matrix(4.45465e-15,72.75,-72.75,4.45465e-15,63,63)"><stop offset="0%" style="stop-color:#f1bf6f;stop-opacity:1"/><stop offset="100%" style="stop-color:#c39b5a;stop-opacity:1"/></linearGradient><linearGradient id="_Linear2" x1="0" y1="0" x2="1" y2="0" gradientUnits="userSpaceOnUse" gradientTransform="matrix(7.16418e-15,117,-117,7.16418e-15,144,46.5)"><stop offset="0%" style="stop-color:#fdcb77;stop-opacity:1"/><stop offset="100%" style="stop-color:#d3a761;stop-opacity:1"/></linearGradient><linearGradient id="_Linear4" x1="0" y1="0" x2="1" y2="0" gradientUnits="userSpaceOnUse" gradientTransform="matrix(1.0287e-14,168,-168,1.0287e-14,96,12.75)"><stop offset="0%" style="stop-color:#731;stop-opacity:1"/><stop offset="100%" style="stop-color:#52240c;stop-opacity:1"/></linearGradient><linearGradient id="_Linear5" x1="0" y1="0" x2="1" y2="0" gradientUnits="userSpaceOnUse" gradientTransform="matrix(8.35821e-15,136.5,-136.5,8.35821e-15,38.25,45)"><stop offset="0%" style="stop-color:#731;stop-opacity:1"/><stop offset="100%" style="stop-color:#4f210b;stop-opacity:1"/></linearGradient><linearGradient id="_Linear6" x1="0" y1="0" x2="1" y2="0" gradientUnits="userSpaceOnUse" gradientTransform="matrix(3.76579e-15,61.5,-61.5,3.76579e-15,147.75,114.75)"><stop offset="0%" style="stop-color:#6c2f10;stop-opacity:1"/><stop offset="100%" style="stop-color:#632a0e;stop-opacity:1"/></linearGradient></defs></svg>